<?xml version="1.0" encoding="utf-8"?>
<svg version="1.1" id="logo" xmlns="http://www.w3.org/2000/svg" xmlns:xlink="http://www.w3.org/1999/xlink" x="0px" y="0px"
   viewBox="0 568.4 612 223.6" xml:space="preserve">
  <path d="M96.2,643.4h31.2v12.1h-7.9V705h7.9v12.1H96.2V705h8.3v-49.5h-8.3V643.4z"/>
  <path d="M0,568.4V792h612V568.4H0z M14.6,777V583H386L207.8,777H14.6z M597.4,777H226.5l177.8-194h193.2L597.4,777
      L597.4,777z"/>
  <path d="M500.4,640.9c-21.6,0-39.6,17.5-39.6,39.6c0,21.6,17.5,39.6,39.6,39.6c21.6,0,39.6-17.5,39.6-39.6
      C540,658.8,522.5,640.9,500.4,640.9z M500.4,706.2c-14.2,0-25.8-11.7-25.8-25.8c0-14.2,11.7-25.8,25.8-25.8
      c14.2,0,25.8,11.7,25.8,25.8C526.2,694.6,514.6,706.2,500.4,706.2z"/>
</svg>
